<svg xmlns="http://www.w3.org/2000/svg" viewBox="0 0 450 120" width="450" height="120">
  <!-- Text Group (Moved significantly closer to the icon area) -->
  <g transform="translate(140, 0)">
    <text x="0" y="58" font-family="sans-serif" font-size="44" font-weight="bold" fill="#FFFFFF">SoutNote</text>
    <text x="0" y="104" font-family="sans-serif" font-size="40" font-weight="bold" fill="#FFFFFF">صوت نوت</text>
  </g>

  <!-- Icon Group (Moved slightly) -->
  <g transform="translate(360, 10)">
    <rect x="0" y="22" width="55" height="70" rx="7" fill="none" stroke="#FFFFFF" stroke-width="4.5" />
    <path d="M 17 22 V 17 C 17 15 19 13 21 13 H 34 C 36 13 38 15 38 17 V 22 Z" fill="#FFFFFF" />
    <circle cx="27.5" cy="11" r="4.5" fill="#FFFFFF" />
    <rect x="12" y="20" width="31" height="4.5" rx="2" fill="#FFFFFF" />
    <rect x="11" y="38" width="7" height="7" rx="1.5" fill="none" stroke="#FFFFFF" stroke-width="2.5" />
    <line x1="26" y1="41.5" x2="44" y2="41.5" stroke="#FFFFFF" stroke-width="3.5" stroke-linecap="round" />
    <rect x="11" y="55" width="7" height="7" rx="1.5" fill="none" stroke="#FFFFFF" stroke-width="2.5" />
    <line x1="26" y1="58.5" x2="44" y2="58.5" stroke="#FFFFFF" stroke-width="3.5" stroke-linecap="round" />
    <rect x="11" y="72" width="7" height="7" rx="1.5" fill="none" stroke="#FFFFFF" stroke-width="2.5" />
    <line x1="26" y1="75.5" x2="44" y2="75.5" stroke="#FFFFFF" stroke-width="3.5" stroke-linecap="round" />
    <circle cx="60" cy="25" r="22" fill="#ffffff" />
    <circle cx="60" cy="25" r="18" fill="none" stroke="#06B6D4" stroke-width="3.5" />
    <rect x="56.5" y="15" width="7" height="12" rx="3.5" fill="#0B1F3B" />
    <path d="M 53 23 V 24.5 A 7 7 0 0 0 67 24.5 V 23" fill="none" stroke="#0B1F3B" stroke-width="2.5" stroke-linecap="round" />
    <line x1="60" y1="31.5" x2="60" y2="36" stroke="#0B1F3B" stroke-width="2.5" stroke-linecap="round" />
    <line x1="56" y1="36" x2="64" y2="36" stroke="#0B1F3B" stroke-width="2.5" stroke-linecap="round" />
  </g>
</svg>
